<svg xmlns="http://www.w3.org/2000/svg" width="543.359" height="136.863" viewBox="0 0 543.359 136.863">
  <g id="Group_5473" data-name="Group 5473" transform="translate(-11650.5 -11934.5)">
    <g id="Group_4717" data-name="Group 4717" transform="translate(11652 11936)">
      <path id="Path_739" data-name="Path 739" d="M53.469,45.181c-.746,1.332-1.439,2.718-2.132,4.1a64.522,64.522,0,0,0,2.5,59.634,3.256,3.256,0,0,1-.373-.746,5.329,5.329,0,0,0,.426.746c.107.213.266.426.426.693A40.186,40.186,0,0,0,88.8,129.063a39.163,39.163,0,0,0,8.26-.853,41.056,41.056,0,0,0,11.884-4.53l.8-.48.107-.107a40.187,40.187,0,0,0,19.185-35.226,37.7,37.7,0,0,1-16.627,4.85c-1.332.053-4,.053-5.329,0a37.452,37.452,0,0,1-16.734-4.85,40.8,40.8,0,0,1-10.019-7.781A39.963,39.963,0,0,1,69.456,53.495h0v-.906a39.69,39.69,0,0,1,2.025-12.63,36.708,36.708,0,0,1,3.357-7.514A40.4,40.4,0,0,1,108.2,12.3,64.305,64.305,0,0,0,54.375,43.8Z" transform="translate(-33.589 -5.744)" fill="#00aff0"/>
      <path id="Path_740" data-name="Path 740" d="M186.212,43.649c-.8-1.332-1.6-2.611-2.5-3.89A64.554,64.554,0,0,0,130.842,12.1h-.8A40.279,40.279,0,0,0,95.936,32.191,40.011,40.011,0,0,0,90.5,52.282v1.066a40.059,40.059,0,0,0,10.872,26.486,40.8,40.8,0,0,0,10.019,7.781,37.9,37.9,0,0,1,4.1-16.84c.639-1.172,1.972-3.464,2.665-4.583a37.68,37.68,0,0,1,12.577-12.044,41.205,41.205,0,0,1,11.778-4.8,39.954,39.954,0,0,1,28.458,3.89h0a5.827,5.827,0,0,0,.8.426,39.761,39.761,0,0,1,9.912,8.047,41.657,41.657,0,0,1,4.85,6.662A40.609,40.609,0,0,1,191.861,86.6a39.969,39.969,0,0,1-4.583,20.731,64.237,64.237,0,0,0-.373-62.352Z" transform="translate(-54.739 -5.651)" fill="#f34235"/>
      <path id="Path_741" data-name="Path 741" d="M118.85,172.821c1.545,0,3.091-.107,4.583-.213a64.409,64.409,0,0,0,50.361-31.975,7.893,7.893,0,0,1-.426.693c.16-.213.266-.48.426-.693.107-.213.266-.48.373-.693a40.292,40.292,0,0,0-.373-39.6,37.34,37.34,0,0,0-4.9-6.715,40.278,40.278,0,0,0-9.859-7.994l-.906-.533a39.96,39.96,0,0,0-28.351-3.837,39.431,39.431,0,0,0-11.724,4.8,37.334,37.334,0,0,1,12.524,11.991c.693,1.119,2.025,3.411,2.665,4.583a36.807,36.807,0,0,1,4.157,16.894A40.285,40.285,0,0,1,118.1,154.862h0l-.8.48a40.682,40.682,0,0,1-20.144,5.383,40.411,40.411,0,0,1-18.439-4.477A39.344,39.344,0,0,1,63,141.911a64.35,64.35,0,0,0,54.144,30.856Z" transform="translate(-41.894 -37.458)" fill="#fdca03"/>
      <g id="Group_314" data-name="Group 314" transform="translate(0 57.502)">
        <path id="Path_39" data-name="Path 39" d="M23.4,126.5a18.838,18.838,0,0,1,30.643-14.442c-.053,0-.107.053-.16.053.053,0,.107-.053.213-.053a18.841,18.841,0,1,1-28.458,23.5h0A18.132,18.132,0,0,1,23.4,126.5Z" transform="translate(-23.395 -107.898)" fill="#00aff0" stroke="#fff" stroke-width="3"/>
      </g>
      <g id="Group_315" data-name="Group 315" transform="translate(96.941 93.208)">
        <path id="Path_40" data-name="Path 40" d="M205.3,193.5a18.838,18.838,0,0,1,30.643-14.442c-.053,0-.107.053-.16.053.053,0,.107-.053.213-.053a18.841,18.841,0,1,1-28.458,23.5h0A19.321,19.321,0,0,1,205.3,193.5Z" transform="translate(-205.3 -174.898)" fill="#fdca03" stroke="#fff" stroke-width="3"/>
      </g>
      <g id="Group_316" data-name="Group 316" transform="translate(78.125 0)">
        <path id="Path_41" data-name="Path 41" d="M170,18.6A18.838,18.838,0,0,1,200.641,4.156c-.053,0-.107.053-.16.053.053,0,.107-.053.213-.053a18.841,18.841,0,1,1-28.458,23.5h0A18.132,18.132,0,0,1,170,18.6Z" transform="translate(-169.995 0.002)" fill="#f34235" stroke="#fff" stroke-width="3"/>
      </g>
    </g>
    <g id="Group_317" data-name="Group 317" transform="translate(11839.235 11957.453)">
      <g id="Group_4715" data-name="Group 4715" transform="translate(0 0.068)">
        <path id="Path_20942" data-name="Path 20942" d="M49.939,68.8a8.12,8.12,0,0,0-3.8-8.09,61.741,61.741,0,0,0-13.652-5.884,79.372,79.372,0,0,1-15.826-6.486A25.965,25.965,0,0,1,.831,25.8,23.344,23.344,0,0,1,5.178,12.365,22.677,22.677,0,0,1,17.2,3.2,51.849,51.849,0,0,1,35.2,0a41.794,41.794,0,0,1,18,3.744A28.179,28.179,0,0,1,65.221,13.97c0,.535.543.535.543,1.07A8.8,8.8,0,0,1,62.64,27.275c-.068.067-.136.067-.2.134a7.877,7.877,0,0,1-4.89,1.07h0a9.432,9.432,0,0,1-8.762-5.884,11.851,11.851,0,0,0-2.717-4.279,17.06,17.06,0,0,0-11.479-3.744,19.689,19.689,0,0,0-10.935,2.674,7.992,7.992,0,0,0-3.8,7.489A8.636,8.636,0,0,0,24.2,32.29a60.025,60.025,0,0,0,13.652,5.884A58.347,58.347,0,0,1,61.825,50.008,25.336,25.336,0,0,1,69.5,67.727a22.872,22.872,0,0,1-9.305,18.788,39.668,39.668,0,0,1-24.588,6.954,49.289,49.289,0,0,1-19.629-3.744A29.122,29.122,0,0,1,2.325,78.96c-.543-1.07-1.087-1.6-1.63-2.674A9.119,9.119,0,0,1,5.382,64.049c.068-.067.136-.067.272-.134a9.223,9.223,0,0,1,3.8-.535h0a9.364,9.364,0,0,1,8.762,6.486c2.173,5.884,8.219,8.625,17.456,8.625A25.828,25.828,0,0,0,46.61,75.817C49.4,74.146,49.939,72.541,49.939,68.8Z" transform="translate(0.162 0.014)" fill="#00aff0"/>
        <path id="Path_20943" data-name="Path 20943" d="M132.449,93.51h0a9.766,9.766,0,0,1-9.849-9.625v-.067h0V11.292A9.763,9.763,0,0,1,132.381,1.6h.068a9.753,9.753,0,0,1,9.849,9.559v.067h0V83.751A10.516,10.516,0,0,1,132.449,93.51Z" transform="translate(-39.218 -0.504)" fill="#00aff0"/>
      </g>
      <g id="Group_4716" data-name="Group 4716" transform="translate(118.439 0)">
        <path id="Path_20944" data-name="Path 20944" d="M184.906,68.763a8.119,8.119,0,0,0-3.8-8.09,60.025,60.025,0,0,0-13.652-5.884A79.374,79.374,0,0,1,151.625,48.3,25.943,25.943,0,0,1,135.8,25.7a23.344,23.344,0,0,1,4.347-13.439A22.426,22.426,0,0,1,152.168,3.1a50.344,50.344,0,0,1,18-3.209,41.794,41.794,0,0,1,18,3.744,24.8,24.8,0,0,1,12.022,10.23c0,.535.543.535.543,1.07a8.8,8.8,0,0,1-3.124,12.236c-.068.067-.136.067-.2.134a7.877,7.877,0,0,1-4.89,1.07h0a9.432,9.432,0,0,1-8.762-5.884,11.85,11.85,0,0,0-2.717-4.279,17.06,17.06,0,0,0-11.479-3.744,19.69,19.69,0,0,0-10.935,2.674,7.993,7.993,0,0,0-3.8,7.489,8.637,8.637,0,0,0,4.347,7.555,60.023,60.023,0,0,0,13.652,5.884,58.347,58.347,0,0,1,23.976,11.835A24.985,24.985,0,0,1,204.4,67.627a22.692,22.692,0,0,1-9.305,18.788,39.668,39.668,0,0,1-24.588,6.954,49.289,49.289,0,0,1-19.629-3.744A29.122,29.122,0,0,1,137.225,78.86c-.543-1.07-1.087-1.6-1.63-2.674a9.119,9.119,0,0,1,4.687-12.236c.068-.067.136-.067.272-.134a9.223,9.223,0,0,1,3.8-.535h0a9.364,9.364,0,0,1,8.762,6.486c2.173,5.884,8.218,8.625,17.456,8.625a25.827,25.827,0,0,0,10.935-2.674C184.363,74.112,184.906,72.508,184.906,68.763Z" transform="translate(-134.738 0.114)" fill="#f34235"/>
        <path id="Path_20945" data-name="Path 20945" d="M305.771,74.915H276.836c-1.087,0-2.717,1.069-2.717,2.139l-3.26,10.226A9.324,9.324,0,0,1,262.1,93.7h0a9.519,9.519,0,0,1-9.305-9.157,6.428,6.428,0,0,1,.543-3.208L281.184,8.279A9.363,9.363,0,0,1,289.945,2.4h3.26a8.957,8.957,0,0,1,8.762,5.882l27.848,73.053a9.128,9.128,0,0,1-5.434,11.83h-.068a6.856,6.856,0,0,1-3.26.535h0a9.39,9.39,0,0,1-8.762-6.416l-3.8-10.761A3.046,3.046,0,0,0,305.771,74.915ZM283.9,59.877h14.739c2.173,0,3.8-2.139,2.717-3.743l-7.675-21.521a3.027,3.027,0,0,0-3.8-1.871,2.047,2.047,0,0,0-.543.267q-1.63.8-1.63,1.6L280.64,56.134c-.543,1.6,1.087,3.208,2.717,3.743Z" transform="translate(-175.344 -0.69)" fill="#f34235"/>
        <path id="Path_20946" data-name="Path 20946" d="M405.129,64.5V84.356a9.749,9.749,0,0,1-9.713,9.693h-.068a9.766,9.766,0,0,1-9.849-9.626v-.067h0V11.289A9.749,9.749,0,0,1,395.213,1.6h26.829a44.226,44.226,0,0,1,18.543,3.744A25.6,25.6,0,0,1,452.607,16.1a31.5,31.5,0,0,1,4.347,15.576,26.9,26.9,0,0,1-9.305,21.459,36.115,36.115,0,0,1-26.218,7.554H407.778A4.079,4.079,0,0,0,405.129,64.5Zm0-21.526a3.479,3.479,0,0,0,3.26,3.209h14.2a14.979,14.979,0,0,0,11.479-3.744,13.866,13.866,0,0,0,3.8-10.228,15.655,15.655,0,0,0-3.8-10.763,16.141,16.141,0,0,0-10.935-4.278H408.39a3.479,3.479,0,0,0-3.26,3.209v22.6Z" transform="translate(-220.792 -0.432)" fill="#f34235"/>
      </g>
    </g>
  </g>
</svg>
